# xmcd
#
# Track frame offsets:
#	150
#	16410
#	36325
#	49830
#	61208
#	77430
#	94008
#	109618
#	116303
#	129975
#	143328
#	152998
#	165735
#	179143
#
# Disc length: 2566 seconds
#
# Revision: 1
# Processed by: cddbd v1.5.2PL0 Copyright (c) Steve Scherf et al.
# Submitted via: audiograbber 1.83.01
#
DISCID=ae0a040e
DTITLE=canzoni milanesi - canzoni milanesi
DYEAR=1900
DGENRE=
TTITLE0=a - Traccia  1
TTITLE1=a - Traccia  2
TTITLE2=a - Traccia  3
TTITLE3=a - Traccia  4
TTITLE4=a - Traccia  5
TTITLE5=a - Traccia  6
TTITLE6=a - Traccia  7
TTITLE7=a - Traccia  8
TTITLE8=a - Traccia  9
TTITLE9=a - Traccia 10
TTITLE10=a - Traccia 11
TTITLE11=a - Traccia 12
TTITLE12=a - Traccia 13
TTITLE13=a - Traccia 14
EXTD=
EXTT0=
EXTT1=
EXTT2=
EXTT3=
EXTT4=
EXTT5=
EXTT6=
EXTT7=
EXTT8=
EXTT9=
EXTT10=
EXTT11=
EXTT12=
EXTT13=
PLAYORDER=
